<?xml version="1.0" encoding="UTF-8"?>
<svg id="Layer_2" data-name="Layer 2" xmlns="http://www.w3.org/2000/svg" viewBox="0 0 512 321.52">
  <defs>
    <style>
      .cls-1 {
        fill: #fde1e8;
      }

      .cls-2 {
        fill: #e6143c;
      }

      .cls-3 {
        fill: #e6163e;
      }

      .cls-4 {
        fill: #fddee5;
      }

      .cls-5 {
        fill: #fddde5;
      }

      .cls-6 {
        fill: #e50f38;
      }

      .cls-7 {
        fill: #e61b42;
      }

      .cls-8 {
        fill: #fde0e7;
      }

      .cls-9 {
        fill: #fddee6;
      }

      .cls-10 {
        fill: #e5113a;
      }

      .cls-11 {
        fill: #e72046;
      }

      .cls-12 {
        fill: #fddfe6;
      }

      .cls-13 {
        fill: #e71d44;
      }
    </style>
  </defs>
  <g id="Layer_1-2" data-name="Layer 1">
    <g id="Generative_Object" data-name="Generative Object">
      <path class="cls-10" d="M188.73,45.05l2.35,11.79c3.58-1.72,6.37-2.74,9.41-3.41,7.09-1.56,14.65-1.45,21.85.59,6.08,1.73,10.43,5.56,16.04,8.37,7.55,3.78,17.78,3.59,24.74-1.42,13.09-9.4,29.34-11.67,44.49-4.13C312.17,28.72,326.45-.61,357.54,0c14.57,1.4,26.53,13.54,33.01,26.16,8.34,16.25,12.13,34.51,11.23,52.65-.63,12.71-5.39,25.82-17.92,28.22-18.09,3.46-30.38-11.09-36.38-27.06l-1.96-7.57-14.06,9.62,2.14,4.43,11.99,23.68,19.79,40.26c-2.71,19.72-10.65,37.49-23.53,52.18l-12.55,12.48c-33.52,26.94-79.26,33.67-120.16,21.08-38.36-11.8-67.59-41.23-75.32-80.95-.38-1.97-.88-4.71,0-6.5l8.34-16.89c8.31-16.82,16.15-33.52,25.08-49.92l-14.08-9.6c-1.21,4.38-2.19,8.2-3.81,11.84-4.12,9.23-10.14,17.61-19.99,21.57-8.46,3.41-18.26,2.15-24.49-4.65-4.1-4.47-6.5-10.52-7.16-16.67-2.19-20.36,1.96-41.01,11.94-58.82C118.02,10.65,130.82-1.84,148.43.23c10.5,1.24,19.38,6.37,26.12,14.5,7.32,8.84,11.99,19.3,14.18,30.32ZM174.74,79.19l-5.13,8.38-23.28,46.94-8.18,16.68c5.16,31.66,25.01,58.22,53.49,72.44,39.47,19.7,89.03,18.11,125.93-6.3,22.77-15.07,38.24-38.34,42.57-65.39.39-2.43-1.88-4.92-2.8-6.85l-19.62-39.66c-4.38-8.93-8.65-17.4-14.02-26.18,10.03-3.46,17.82-9.27,24.84-17.23,1.89,10.52,4.11,19.53,9.6,27.92,4.64,8.25,13.51,13.25,23.06,12.42,13.33-1.16,15.91-16.94,15.63-30.03-.29-13.95-3.28-27.53-8.86-40.15-6.11-13.81-17.25-27.02-32.72-27.04-29.34-.02-41.07,33.55-43.49,60.03-13.52-9.64-30.37-10.96-43.22-1.51-11.18,8.23-26.07,8.33-37.33.41-13.8-9.7-31.35-8.87-44.69,1.73-1.05-17.87-5.57-36.32-16.84-49.08-9.31-10.69-24.52-15.26-37.48-8.41-7.88,4.16-13.7,11.23-18,18.91-9.39,16.78-13.35,35.96-11.67,55.07.91,10.33,5.23,19.24,15.71,20.15,20.79.53,28.58-20.85,31.99-40.45,6.94,8.21,14.75,13.95,24.51,17.18Z"/>
      <path class="cls-2" d="M212.49,283.12c-4.02.2-8.17-4.56-14.51-3.24-1.92.4-3.95,2.51-2.71,4.39,2.07,3.15,10.33,3.09,16.36,6.16,3.46,1.76,7.28,4.52,8.5,8.55,2.9,9.56-1.92,19.17-11.45,21.56-8.55,2.14-17.97.74-24.99-4.35-3.55-2.58-4.59-6.35-2.18-9.74,2.09-2.94,6.16-3.79,9.51-1.25,7.33,5.54,15.9,4.48,16.54.6.31-1.85-.53-3.15-2.36-3.71l-13.22-4.02c-4.12-1.25-7.89-3.84-9.47-7.95-2.97-7.71-.66-15.71,6.52-20.15,8.37-5.16,19.35-3.71,27.58,1.93,2.52,1.73,2.86,4.87,1.98,7.29s-3.48,3.8-6.11,3.93ZM217.68,308.8c1.41-4.74.75-9.85-3.05-13.29-7.81-7.07-24.32-4.06-22.58-14.1.74-4.31,9.15-6.62,17.57-1.76,2.27,1.31,4.67,1.4,6.19-1.07,3.66-5.93-14.23-12.81-25.44-6.44-7.12,4.04-8.89,14.36-3.12,19.94,6.86,6.63,21.58,4.46,22.89,11.94.81,4.6-3.44,7.2-7.58,7.59-9.57.89-14.76-7.98-18.56-4.04-1.21,1.26-1.53,3.97.22,5.43,10.03,8.44,29.79,8.17,33.47-4.19Z"/>
      <path class="cls-3" d="M497.79,281.33c-2.76-1.02-6.12-2.09-9.28-1.28-1.51.39-2.8,2.14-2.51,3.28.41,1.62,1.51,2.49,3.13,2.92l8.81,2.34c7.5,1.99,13.31,6.47,14.01,14.75s-4.23,15.3-12.34,17.25c-8.68,2.09-18.16.58-25.33-4.82-3.44-2.59-4.29-6.66-1.46-9.75,6.6-7.2,11.09,4.65,22.31,2.62,1.1.22,2.79-1.33,3.25-2.35.7-1.57-.05-3.56-1.75-4.09l-14.64-4.59c-6.27-1.97-9.63-7.27-9.59-13.83.04-5.88,2.33-11.21,7.93-14.15,8.71-4.57,20.12-3.28,28.09,2.81,2.41,1.84,1.72,5.76.37,8.06-1.23,2.09-4.53,3.23-7.29,2.21l-3.71-1.37ZM500.22,317.43c6.57-2.22,9.27-7.76,9.11-13.7s-4.18-10.2-9.99-11.86l-11.82-3.37c-2.78-.79-4.29-2.56-4.49-5.09s1.21-4.72,3.8-5.72c10.23-3.95,16.16,6.87,19.96.87,4.63-7.31-21.5-14.29-29.1-3.18-2.66,3.89-3.38,8.77-1.8,12.93s5.4,6.44,9.76,7.72l11.22,3.28c2.62.77,4.49,3.28,4.38,5.74s-1.84,4.88-4.42,5.74c-11.28,3.77-18.02-7.74-21.86-3.29-5.28,6.12,11.88,14.43,25.25,9.91Z"/>
      <path class="cls-3" d="M297.52,302.49c.76.17,1.62-.59,2.27-.83,3.77-1.36,6.78,1.17,8.79,4.57,1.4,2.36,4.82,3.39,7.22,2.45,2.19-.86,3.5-3.27,3.49-6.06l-.11-27.88c-.02-4.2,2.8-7.32,6.6-7.32,4.1,0,6.65,2.94,6.65,7.35v27.88c0,5.67-2.15,11.47-6.47,15.09-7.15,5.98-22,5.01-28.5-3.9-2.72-3.72-2.82-7.97.06-11.35ZM298.47,309.8c3.72,9.59,18.72,11.83,26.23,5.15,3.52-3.13,5.08-7.82,5.05-13.05l-.13-28.58c0-1.88-1.98-3.04-3.22-3.25-1.13-.19-4.02.61-4.23,2.16l-.41,31.68c-.05,4.02-3.32,6.98-6.61,7.59-8.53,1.57-9.33-9.06-14.42-7.23-2.1.76-3.3,2.89-2.27,5.54Z"/>
      <path class="cls-1" d="M174.74,79.19c-9.76-3.23-17.57-8.97-24.51-17.18-3.41,19.6-11.2,40.98-31.99,40.45-10.47-.91-14.8-9.82-15.71-20.15-1.68-19.11,2.28-38.29,11.67-55.07,4.3-7.69,10.12-14.75,18-18.91,12.96-6.84,28.17-2.27,37.48,8.41,11.27,12.76,15.79,31.21,16.84,49.08,13.34-10.6,30.89-11.43,44.69-1.73,11.26,7.91,26.15,7.81,37.33-.41,12.85-9.46,29.7-8.13,43.22,1.51,2.42-26.49,14.15-60.06,43.49-60.03,15.47.01,26.61,13.23,32.72,27.04,5.58,12.62,8.57,26.2,8.86,40.15.27,13.09-2.3,28.87-15.63,30.03-9.55.83-18.41-4.17-23.06-12.42-5.48-8.4-7.7-17.41-9.6-27.92-7.02,7.96-14.81,13.77-24.84,17.23,5.37,8.77,9.63,17.24,14.02,26.18l19.62,39.66c.92,1.93,3.19,4.42,2.8,6.85-4.34,27.04-19.8,50.32-42.57,65.39-36.9,24.41-86.46,26-125.93,6.3-28.49-14.22-48.33-40.78-53.49-72.44l8.18-16.68,23.28-46.94,5.13-8.38ZM150.64,59.98l10.11,9.57c4.16,3.94,9.19,6.13,14.94,8.08l8.9-10.18c-.22-17.84-5.19-37.46-17.27-50.45-8.39-9.02-21.35-13.01-32.75-7.78-6.35,2.92-11.24,7.65-15.22,13.5-11.93,17.58-17.04,39.28-14.82,60.53.55,5.23,2.36,10.64,6.26,13.98,5.89,5.04,14.59,4.17,20.73-.42,5.18-3.88,8.98-9.13,11.32-15.25,6.1-15.97,8.06-33.09,7.46-49.93.72-.32,1.31-.27,1.52-.12,1.17.83.03,20-1.18,28.46ZM348.66,32.36c-.87,20.01,2.45,50.43,16.54,62.99,5.89,5.25,14.63,7.3,21.24,3.23,4.84-2.98,7.07-8.39,7.81-13.93,2.28-17.09-.65-34.59-7.58-50.4-6.21-14.16-18.08-28.87-33.83-27.24-27.17,2.82-37.92,35.3-39.16,60.32,3.59,3.03,6.23,6.19,9.03,10.38,9.96-3.44,18.21-9.81,25.26-18.08-1.09-8.4-2.34-27.69-.51-28.35.33-.12,1.25-.12,1.2,1.07ZM320.71,212.8c20.09-14.8,33.29-36.26,37.74-60.97l-16.1-32.76-17.49-34.21c-3.23-6.32-7.16-11.51-12.44-16.36-10.78-9.91-28.09-13.23-40.75-4.42-12.1,8.42-27.83,11.13-40.55,2.06-11.86-8.45-26.99-9.67-39.69-1.28-7.95,5.26-13.86,12.8-18.44,21.17-6.95,12.69-13.2,25.34-19.56,38.37l-13.38,27.42c4.76,27.06,20.96,51.08,44.05,65.34,41.14,25.41,97.44,24.5,136.61-4.35Z"/>
      <path class="cls-2" d="M109.63,293.31c.4,14.97-10.18,27.17-24.88,28.11-11.94.77-23.05-5.51-27.35-16.55-4.56-11.71-1.4-24.33,7.86-31.9,9.39-7.68,22.86-8.28,32.82-1.25,7.24,5.11,11.3,12.33,11.55,21.59ZM76.67,318.04c9.51,2.2,18.7-1.13,24.54-7.79s7.37-16.25,4.16-25.07-11.84-14.81-20.9-15.56c-13.78-1.15-25.78,8.52-26.27,23.93-.37,11.59,6.76,21.79,18.47,24.49Z"/>
      <path class="cls-3" d="M368.7,320.71c-13.14-3.14-21.35-15.28-20.47-28.47.44-6.53,2.52-11.93,6.93-16.48,7.84-8.08,19.24-11.39,30.12-7.14,9.79,3.82,17.08,13.48,17.21,24.96.09,7.28-2.29,14.07-7.36,19.58-6.6,7.14-16.77,9.86-26.42,7.55ZM386.87,315.95c7.43-3.64,12.32-11.33,12.66-19.49.37-8.91-2.64-16.9-9.37-21.98s-15.45-6.41-23.62-3.35c-9.81,3.68-15.51,12.68-15.65,23.08-.12,8.54,4.58,16.71,11.08,20.7,8,4.92,16.8,5,24.89,1.04Z"/>
      <path class="cls-2" d="M151.01,314.8c-.03,4.64-3.74,6.76-7.67,6.22-3.61-.49-5.69-2.89-5.73-6.56l-.14-13.22c-.03-2.51-2.12-4.74-3.45-6.77l-10.7-16.39c-2.17-3.33-1.97-6.77.84-9.11s7.39-1.92,9.61,1.41l10.59,15.84,10.61-15.86c2.16-3.23,5.96-3.78,9.24-1.6,2.6,1.73,3.52,5.61,1.44,8.8l-14.53,22.32-.1,14.92ZM148.36,299.05l15.37-23.54c1.35-2.06-.14-4.54-2.2-5.26-2.51-.87-3.86.73-5.23,2.8l-12,18.13-12.59-19.4c-1.28-1.97-3.87-2.06-5.43-1.17-1.99,1.13-2.37,3.46-1,5.53l12.98,19.68c.74,1.12,1.8,2.64,1.83,3.93l.39,15.5c.06,2.22,2.25,2.99,4.06,3.15,1.46.13,3.74-1.02,3.75-3.2l.07-16.15Z"/>
      <path class="cls-10" d="M28.58,316.05c-.03,3.91-4.04,5.22-6.83,5.05-3.2-.19-6.26-2.35-6.28-5.89l-.26-34.27-9.49-.33c-3.22-.11-5.25-2.74-5.67-5.63-.36-2.45,1.38-6.88,4.79-6.91l32.4-.26c4.16-.03,6.66,2.94,6.68,6.56s-2.66,6.34-6.64,6.44l-8.38.23-.31,35.02ZM25.99,315.51l.08-37.42,11.21-.07c2.43-.01,4.23-1.54,4.24-3.67,0-1.46-1.42-3.85-3.56-3.86l-31.37-.08c-2.41,0-4.11,1.86-4.03,3.91.08,2.17,1.45,3.75,4.04,3.74l11.35-.07.06,15.59.3,22.36c.03,2.07,2.58,2.2,4.05,2.38,1.14.14,3.63-.66,3.64-2.82Z"/>
      <path class="cls-2" d="M273.17,319.41c-2.82,2.51-8.1,2.24-10.42-.77-1.63-2.12-1.26-5.11-1.47-7.4l-22.21-.65c-3.86-.11-4.67-6.73-2.49-9.62l22.78-30.15c3.46-4.59,11.32-4.25,13.76-1.41,1.19,1.39,1.78,3.45,1.79,5.76l.11,23.37c4.18.34,6.03,3.06,6.08,6.54s-2.17,5.85-6.07,6.6c-.12,2.62.11,5.99-1.86,7.74ZM272,316.02l.28-7.71c1.51-.08,3,.21,4.35-.28,1.95-.71,2.08-3.99,1.04-5.41-1.1-1.5-3.04-1.72-5.61-1.21l.12-28c.02-4.84-9-3.28-9.7-2.34l-23.69,31.3c-1.04,1.38-.55,5.54,1.03,5.57l24.25.36.84,8.3c.98,2.38,7.01,2.31,7.11-.58Z"/>
      <path class="cls-10" d="M442.92,314.69c-.03,2.32-1.41,4.46-2.87,5.34-2.52,1.52-5.01.95-7.14.72-6.46-3.94-2.17-13.65-4.03-20.55-1.29-4.77-4.93-8.49-7.53-12.47l-6.63-10.16c-2.24-3.43-.55-8.16,2.76-9.49,3.7-1.49,6.9-.06,9.05,3.27l9.58,14.81,11.02-15.99c2.28-3.32,6.75-3.42,9.73-.95s2.04,6-.01,9.25l-13.75,21.71-.18,14.52ZM440.59,298.86l14.59-22.67c1.41-2.19.9-4.44-1.05-5.55-1.44-.81-3.77-1.01-5.01.86l-12.98,19.53-13.22-20.07c-1.1-1.68-3.99-.94-5.04-.12-1.28,1-1.76,3.33-.69,5.04l14.56,23.1.72,16.83c.09,2.1,2.5,2.86,4.25,2.66s3.35-1.77,3.41-3.79l.46-15.82Z"/>
      <path class="cls-9" d="M217.68,308.8c-3.68,12.36-23.44,12.63-33.47,4.19-1.74-1.47-1.43-4.17-.22-5.43,3.8-3.94,8.99,4.92,18.56,4.04,4.13-.38,8.38-2.98,7.58-7.59-1.31-7.48-16.03-5.3-22.89-11.94-5.77-5.58-4-15.9,3.12-19.94,11.21-6.37,29.1.51,25.44,6.44-1.52,2.47-3.91,2.38-6.19,1.07-8.42-4.86-16.82-2.54-17.57,1.76-1.73,10.04,14.77,7.04,22.58,14.1,3.8,3.44,4.46,8.55,3.05,13.29ZM209.43,315.7c4.61-1.64,7.09-6.27,7.37-10.65s-2.49-8.52-6.72-10.56c-9.02-4.34-19.1-2.9-19.54-11.07-.2-3.77,1.77-6.38,5.74-7.49,9.53-2.66,14.98,4.74,17.5,2.68,4.43-3.62-8.76-9.85-20.01-6.51-4.63,1.37-9.25,6.98-8.43,13.28.41,3.13,2.67,5.85,6.01,7.66,7.45,4.03,15.8,2.77,19.43,8.43,1.37,2.14,1.35,5.05-.11,7.31-4.3,6.62-15.08,5.02-22.38-.19-1.32-.95-2.58-.68-3.48.32-3.2,3.55,11.68,11.39,24.63,6.79Z"/>
      <path class="cls-12" d="M500.22,317.43c-13.37,4.52-30.54-3.79-25.25-9.91,3.84-4.45,10.57,7.06,21.86,3.29,2.58-.86,4.32-3.36,4.42-5.74s-1.76-4.97-4.38-5.74l-11.22-3.28c-4.36-1.28-8.26-3.75-9.76-7.72s-.86-9.04,1.8-12.93c7.6-11.11,33.73-4.13,29.1,3.18-3.8,5.99-9.73-4.83-19.96-.87-2.59,1-4,3.24-3.8,5.72s1.71,4.29,4.49,5.09l11.82,3.37c5.81,1.66,9.83,6.1,9.99,11.86s-2.54,11.48-9.11,13.7ZM506.96,309.1c1.61-4.53.74-10.15-3.23-13.04-8.12-5.9-22.13-4.09-22.23-12.62-.04-3.4,2.07-6.45,5.67-7.52,10.03-2.99,15.28,5.36,17.97,2.31,3.5-3.97-11.89-10.24-22.11-5.15-4.49,2.23-6.8,6.5-6.66,11.04.13,4.3,2.81,8.32,7.36,9.67l13.79,4.09c3.49,1.03,5.38,3.79,5.23,7.2-.14,3.09-1.91,5.84-5.27,7.12-10.64,4.05-17.89-5.65-21.29-3.68-.74.43-1.36,2.42-.1,3.4,9.95,7.69,27.23,7.41,30.87-2.82Z"/>
      <path class="cls-4" d="M298.47,309.8c-1.03-2.65.18-4.78,2.27-5.54,5.09-1.84,5.89,8.8,14.42,7.23,3.28-.61,6.55-3.56,6.61-7.59l.41-31.68c.21-1.54,3.1-2.35,4.23-2.16,1.24.21,3.21,1.37,3.22,3.25l.13,28.58c.02,5.22-1.53,9.92-5.05,13.05-7.52,6.67-22.52,4.43-26.23-5.15ZM299.57,308.17c2.12,6.13,7.9,9.04,13.98,9.16,8.42.17,14.54-5.52,14.56-14.1l.06-29.13c0-1.61-1.38-2.41-2.39-2.46-.77-.04-2.42.44-2.42,1.71l-.13,29.23c-.02,3.75-1.53,7.17-4.11,8.82-5.8,3.69-13.49.29-14.98-4.17-.43-1.29-1.58-1.55-2.66-1.53-.84.01-2.3,1.31-1.9,2.48Z"/>
      <path class="cls-6" d="M320.71,212.8c-39.18,28.85-95.47,29.76-136.61,4.35-23.09-14.26-39.29-38.28-44.05-65.34l13.38-27.42c6.36-13.03,12.61-25.68,19.56-38.37,4.58-8.37,10.49-15.91,18.44-21.17,12.69-8.39,27.83-7.17,39.69,1.28,12.72,9.06,28.45,6.35,40.55-2.06,12.66-8.81,29.97-5.49,40.75,4.42,5.28,4.85,9.21,10.04,12.44,16.36l17.49,34.21,16.1,32.76c-4.45,24.71-17.65,46.18-37.74,60.97ZM353.15,152.27l-14.6-29.56-12.56-25.05c-3.94-7.85-7.7-15.44-13.64-21.87-9.08-10.87-23.49-14.93-36.44-8.92-12.02,10.2-28.29,12.64-42.81,6.49l-4.81-2.85c-13.08-10.29-30.77-7.67-41.64,4.9-5.04,5.83-9.22,12.13-12.77,19.22l-15.76,31.55-12.87,26.32c7.53,35.51,30.4,59.81,64.42,71.34,28.13,9.54,58.66,8.71,85.94-2.53,30.04-12.37,51.77-36.77,57.54-69.05Z"/>
      <path class="cls-6" d="M348.66,32.36c.05-1.19-.86-1.19-1.2-1.07-1.83.65-.59,19.95.51,28.35-7.06,8.27-15.3,14.64-25.26,18.08-2.81-4.19-5.44-7.35-9.03-10.38,1.24-25.03,11.99-57.5,39.16-60.32,15.74-1.63,27.62,13.08,33.83,27.24,6.93,15.8,9.86,33.31,7.58,50.4-.74,5.54-2.97,10.95-7.81,13.93-6.62,4.07-15.35,2.02-21.24-3.23-14.09-12.56-17.41-42.98-16.54-62.99ZM319.42,58.63c-.26,1.8-1.63,5.39-.37,6.72l5.75,6.08c4.21-1.39,7.56-3.77,10.71-6.36,2.46-2.02,5.06-4.24,7.12-7.22-1.02-8.74-1.45-16.99-.8-25.44.28-3.67,2.89-6.27,6.27-6.04,3.67.25,5.54,3.09,5.43,7.02-.41,15.91,1.22,31.75,7.02,46.38,4.27,10.77,13.66,19.03,22.79,14.82,2.2-1.01,4.6-3.88,5.26-7.1.96-4.7,1.7-9.4,1.57-14.44-.51-18.93-7.37-45.28-22.18-56.43-6.72-5.06-15.21-6.09-22.99-2.64-16.1,7.15-23.28,28.53-25.58,44.65Z"/>
      <path class="cls-6" d="M150.64,59.98c1.21-8.46,2.35-27.63,1.18-28.46-.21-.15-.8-.2-1.52.12.59,16.84-1.37,33.96-7.46,49.93-2.33,6.12-6.13,11.37-11.32,15.25-6.14,4.59-14.83,5.46-20.73.42-3.9-3.33-5.71-8.75-6.26-13.98-2.22-21.25,2.88-42.95,14.82-60.53,3.97-5.85,8.87-10.59,15.22-13.5,11.4-5.23,24.36-1.24,32.75,7.78,12.07,12.98,17.05,32.6,17.27,50.45l-8.9,10.18c-5.75-1.95-10.78-4.14-14.94-8.08l-10.11-9.57ZM145.34,33.02c-.04-3.81,2.09-5.86,4.66-6.49,1.91-.46,6.07.7,6.55,3.45,1.6,9.08.32,18.26-.51,27.75,4.63,6.31,10.95,11.22,18.52,14.02,1.65-2.24,2.83-4.17,5.03-5.87-.7-16.7-5.47-36.15-17.88-47.46-8.25-7.51-20.61-8.76-29.69-2.03-23.58,17.46-30.16,74.86-15.18,78.86,6.1,1.63,11.65-1.44,15.55-5.83,11-12.41,13.15-38.31,12.94-56.4Z"/>
      <path class="cls-12" d="M76.67,318.04c-11.71-2.7-18.84-12.9-18.47-24.49.49-15.41,12.49-25.08,26.27-23.93,9.06.75,17.66,6.66,20.9,15.56s1.82,18.26-4.16,25.07-15.03,9.98-24.54,7.79ZM67.03,311.49c6.95,6.24,15.52,7.35,23.96,4.26,6.82-2.49,12.76-9.21,14.08-17.24,2.31-13.99-6.93-26.5-21.07-27.41-5.5-.35-10.88.9-15.4,4.37-11.24,8.65-12.42,26.27-1.57,36.01Z"/>
      <path class="cls-1" d="M386.87,315.95c-8.09,3.96-16.89,3.88-24.89-1.04-6.5-4-11.2-12.16-11.08-20.7.14-10.4,5.84-19.41,15.65-23.08,8.17-3.06,16.92-1.7,23.62,3.35s9.74,13.08,9.37,21.98c-.34,8.16-5.23,15.85-12.66,19.49ZM398.03,291.45c-.66-7.68-5-13.93-11.76-17.63-12.76-6.99-28.67-.2-32.9,13.23-4.46,14.19,4.7,28.74,19.5,30.23,7.3.74,13.94-1.9,18.8-6.68,5.11-5.03,7-11.77,6.37-19.14Z"/>
      <path class="cls-9" d="M148.36,299.05l-.07,16.15c0,2.17-2.29,3.33-3.75,3.2-1.81-.16-4.01-.93-4.06-3.15l-.39-15.5c-.03-1.29-1.09-2.8-1.83-3.93l-12.98-19.68c-1.37-2.07-.99-4.4,1-5.53,1.56-.89,4.15-.8,5.43,1.17l12.59,19.4,12-18.13c1.37-2.08,2.72-3.68,5.23-2.8,2.06.72,3.55,3.19,2.2,5.26l-15.37,23.54ZM147.04,299.05l14.7-23.37c.66-1.04.9-2.1.24-3.07-.33-.48-1.24-1.15-2.09-.71-.5.25-1.26.7-1.84,1.56l-13.76,20.4-14.03-21.35c-.83-1.26-3.22-1.18-3.88.21-.41.87-.19,1.81.58,3.04l14.16,22.74c2.64,6.04-1.97,18.38,3.25,18.4.99,0,2.26-.37,2.29-1.79l.37-16.07Z"/>
      <path class="cls-5" d="M25.99,315.51c0,2.16-2.5,2.95-3.64,2.82-1.47-.18-4.02-.31-4.05-2.38l-.3-22.36-.06-15.59-11.35.07c-2.59.02-3.96-1.57-4.04-3.74-.07-2.05,1.62-3.92,4.03-3.91l31.37.08c2.14,0,3.56,2.4,3.56,3.86,0,2.13-1.8,3.66-4.24,3.67l-11.21.07-.08,37.42ZM24.53,314.97v-38.47s13.26.04,13.26.04c1.52,0,1.82-1.28,1.88-2.14.04-.59-.23-2.31-1.24-2.3l-32.63.17c-1.32.1-1.69,2.66-1.13,3.25,1.83,1.97,9.15,1.27,14.92.84l-.04,38.13c0,1.54,1.7,2.37,2.59,2.35.77-.02,2.4-.73,2.4-1.87Z"/>
      <path class="cls-12" d="M272,316.02c-.1,2.89-6.13,2.96-7.11.58l-.84-8.3-24.25-.36c-1.58-.02-2.07-4.19-1.03-5.57l23.69-31.3c.71-.94,9.72-2.5,9.7,2.34l-.12,28c2.57-.51,4.52-.29,5.61,1.21,1.04,1.42.91,4.7-1.04,5.41-1.35.49-2.84.2-4.35.28l-.28,7.71ZM270.61,306.91c2.15-.06,3.67.16,5.05-.29.99-.32,1.25-1.61,1.17-2.22-.06-.43-.32-1.45-1.12-1.49l-5.35-.25v-30.54c-1.95-.44-5.15-1-6.57.24l-21.64,27.92c-1.54,1.99-2.67,3.83-1.68,6.61l25.33.12.29,8.77c.55,1.49,2.04,1.41,2.82,1.09,1.03-.42,1.62-1.61,1.63-3.04l.06-6.9Z"/>
      <path class="cls-5" d="M440.59,298.86l-.46,15.82c-.06,2.02-1.63,3.59-3.41,3.79s-4.16-.56-4.25-2.66l-.72-16.83-14.56-23.1c-1.08-1.71-.6-4.03.69-5.04,1.04-.82,3.93-1.55,5.04.12l13.22,20.07,12.98-19.53c1.24-1.86,3.57-1.67,5.01-.86,1.96,1.11,2.46,3.36,1.05,5.55l-14.59,22.67ZM438.61,298.39l15.31-23.59c.85-1.31.26-2.66-.53-2.95-1.23-.44-2.68.12-3.38,1.19l-13.87,21.18-13.74-21.61c-.8-1.26-2.73-1.36-3.64-.46s-.88,2.22-.06,3.52l14.53,23.05.54,16.18c.05,1.43,1.29,2.25,2.2,2.3.77.04,2.49-.8,2.5-2.07l.15-16.74Z"/>
      <path class="cls-11" d="M209.43,315.7c-12.94,4.6-27.83-3.25-24.63-6.79.9-1,2.16-1.26,3.48-.32,7.3,5.21,18.08,6.81,22.38.19,1.46-2.25,1.48-5.16.11-7.31-3.63-5.67-11.98-4.41-19.43-8.43-3.34-1.81-5.6-4.53-6.01-7.66-.82-6.3,3.8-11.91,8.43-13.28,11.25-3.34,24.44,2.89,20.01,6.51-2.52,2.06-7.97-5.34-17.5-2.68-3.98,1.11-5.95,3.72-5.74,7.49.44,8.17,10.52,6.72,19.54,11.07,4.24,2.04,7.01,6.06,6.72,10.56s-2.76,9.01-7.37,10.65Z"/>
      <path class="cls-13" d="M506.96,309.1c-3.64,10.23-20.92,10.51-30.87,2.82-1.26-.97-.64-2.97.1-3.4,3.4-1.97,10.65,7.73,21.29,3.68,3.36-1.28,5.14-4.03,5.27-7.12.15-3.41-1.74-6.17-5.23-7.2l-13.79-4.09c-4.55-1.35-7.23-5.37-7.36-9.67-.14-4.54,2.17-8.81,6.66-11.04,10.22-5.08,25.61,1.19,22.11,5.15-2.69,3.05-7.94-5.3-17.97-2.31-3.6,1.07-5.71,4.13-5.67,7.52.1,8.54,14.11,6.72,22.23,12.62,3.97,2.89,4.84,8.51,3.23,13.04Z"/>
      <path class="cls-3" d="M299.57,308.17c-.4-1.17,1.06-2.47,1.9-2.48,1.07-.02,2.23.25,2.66,1.53,1.49,4.46,9.18,7.86,14.98,4.17,2.58-1.64,4.1-5.07,4.11-8.82l.13-29.23c0-1.27,1.66-1.75,2.42-1.71,1.02.05,2.39.85,2.39,2.46l-.06,29.13c-.02,8.59-6.14,14.28-14.56,14.1-6.08-.12-11.86-3.03-13.98-9.16Z"/>
      <path class="cls-7" d="M67.03,311.49c-10.85-9.74-9.67-27.36,1.57-36.01,4.52-3.48,9.9-4.73,15.4-4.37,14.14.91,23.38,13.42,21.07,27.41-1.32,8.03-7.26,14.74-14.08,17.24-8.44,3.08-17.01,1.98-23.96-4.26ZM83.87,312.76c10.44-1.05,16.85-9.16,16.37-19.21-.38-7.85-4.93-14.96-12.11-17.12s-15.26-.3-19.93,6.24c-5.69,7.97-4.51,19.4,2.81,25.94,3.5,3.13,8.47,4.59,12.85,4.15Z"/>
      <path class="cls-2" d="M398.03,291.45c.64,7.37-1.26,14.11-6.37,19.14s-11.49,7.42-18.8,6.68c-14.79-1.49-23.96-16.03-19.5-30.23,4.22-13.43,20.14-20.22,32.9-13.23,6.77,3.71,11.1,9.95,11.76,17.63ZM389.37,305.83c3.1-4.08,4.04-9.54,3.36-14.56-1.31-9.61-9.33-16.24-18.71-15.63-9.16.6-15.84,7.63-16.52,17.27-.57,8.1,3.72,15.66,11.01,18.53s15.8,1.05,20.86-5.61Z"/>
      <path class="cls-13" d="M147.04,299.05l-.37,16.07c-.03,1.41-1.3,1.79-2.29,1.79-5.22-.02-.61-12.36-3.25-18.4l-14.16-22.74c-.77-1.23-.99-2.17-.58-3.04.66-1.38,3.05-1.47,3.88-.21l14.03,21.35,13.76-20.4c.58-.86,1.34-1.31,1.84-1.56.85-.43,1.76.24,2.09.71.66.96.42,2.02-.24,3.07l-14.7,23.37Z"/>
      <path class="cls-11" d="M24.53,314.97c0,1.15-1.62,1.85-2.4,1.87-.89.02-2.59-.81-2.59-2.35l.04-38.13c-5.77.43-13.09,1.13-14.92-.84-.56-.6-.19-3.15,1.13-3.25l32.63-.17c1,0,1.27,1.71,1.24,2.3-.05.86-.36,2.15-1.88,2.14l-13.26-.04v38.47Z"/>
      <path class="cls-11" d="M270.61,306.91l-.06,6.9c-.01,1.43-.6,2.62-1.63,3.04-.78.32-2.27.4-2.82-1.09l-.29-8.77-25.33-.12c-.99-2.77.13-4.62,1.68-6.61l21.64-27.92c1.42-1.24,4.62-.68,6.56-.24v30.54s5.35.25,5.35.25c.8.04,1.06,1.06,1.12,1.49.08.62-.18,1.9-1.17,2.22-1.38.45-2.9.23-5.05.29ZM265.97,302.66v-27.51s-20.53,27.5-20.53,27.5h20.53Z"/>
      <path class="cls-11" d="M438.61,298.39l-.15,16.74c-.01,1.27-1.73,2.1-2.5,2.07-.9-.04-2.15-.86-2.2-2.3l-.54-16.18-14.53-23.05c-.82-1.3-.84-2.62.06-3.52s2.83-.8,3.64.46l13.74,21.61,13.87-21.18c.7-1.07,2.14-1.63,3.38-1.19.79.28,1.39,1.63.53,2.95l-15.31,23.59Z"/>
      <path class="cls-8" d="M83.87,312.76c-4.38.44-9.35-1.02-12.85-4.15-7.32-6.54-8.5-17.97-2.81-25.94,4.67-6.54,12.69-8.42,19.93-6.24s11.73,9.27,12.11,17.12c.49,10.05-5.93,18.16-16.37,19.21ZM84.51,311.5c6.44-1.01,11.7-5.88,13.37-10.89,2.34-6.98.71-13.58-3.69-18.48-4.99-5.55-12.53-6.88-19.38-3.29-5.42,2.84-8.48,8.72-8.67,14.43-.39,11.67,9.03,19.69,18.37,18.23Z"/>
      <path class="cls-8" d="M389.37,305.83c-5.06,6.66-13.41,8.54-20.86,5.61s-11.59-10.42-11.01-18.53c.68-9.65,7.36-16.67,16.52-17.27,9.38-.62,17.4,6.01,18.71,15.63.68,5.02-.26,10.48-3.36,14.56ZM391.55,293.76c-.22-9.25-7.03-16.81-16.21-16.84-8.97-.03-16.08,7.33-16.39,16.61-.32,9.95,6.68,17.67,16.37,17.85s16.46-7.97,16.23-17.62Z"/>
      <path class="cls-12" d="M265.97,302.66h-20.53s20.52-27.51,20.52-27.51v27.51ZM264.25,301.14l-.04-20.67-12.3,16.36c-1.11,1.48-2.59,2.45-3.27,4.45l15.61-.14Z"/>
      <path class="cls-10" d="M261.06,175.76l-6.66,9.75c-1.32,1.93-3.23,2.62-5.39,2.6-1.69-.01-3.97-.97-5.05-2.9-3.07-5.48-6.79-10.14-10.92-14.78-10.82-12.12-26.33-19.94-42.36-24.2l-9.58,3.75c-3.49,1.37-6.89.15-8.13-2.96-1.42-3.57.24-7.07,4.01-8.23,10.85-3.34,19.88-9.67,27.33-18.06,2.53-2.85,5.45-5.39,6.6-8.93-6.53-7.56-15.86-17.07-8.85-22.46,2.19-1.69,6.88-1.37,8.42,1.86,3.59,7.54,8.87,13.52,16.91,17.28,20.86,9.76,50.5,5.03,60.9-16.69,1.47-3.06,4.62-4.35,7.71-2.93,2.15.99,4.36,4.35,3.08,7.3-2.58,5.96-6.49,10.92-11.31,15.65,7.94,12.05,19.42,22.15,33.44,26.74,3.44,1.13,5.55,3.3,5.29,6.57-.29,3.6-3.77,6.48-7.25,5.19l-11.23-4.17c-12.62,3.83-24.6,8.81-34.61,17.2l-12.33,12.38ZM308.67,141.23l11.24,4.1c.63.23,1.13.12,1.37-.06s.1-1.44-.33-1.58c-16.85-5.41-30.55-17.4-39.64-32.86,1.23-1.92,2.92-2.82,4.47-4.16,3.86-3.33,6.33-7.72,8.74-12.15.31-.56-.49-1.19-.88-1.18-.26,0-.96-.05-1.22.52-8.04,17.25-26.38,25.13-44.95,24.33-18.06-.78-33.73-8.35-41.48-24.48-.88-.47-1.92.25-1.71.72,2.97,6.59,7.29,11.95,13.42,16.24-4.28,7.27-9.35,13.1-15.23,18.8-7.29,7.07-16.08,10.95-25.71,15.11,5.04,1.54,8.47-2.25,12.77-3.91,12.42,2.96,24.18,8.05,34.68,15.46,8.27,5.83,19,16.84,23.16,25.62.39.81,1.68,1.28,2.33,1.11.75-.2,1.2-.69,1.81-1.71,10.83-18.12,27.96-31.17,48.13-37.45,2.94-.91,5.54-2.85,9.04-2.49Z"/>
      <path class="cls-3" d="M84.51,311.5c-9.33,1.46-18.76-6.56-18.37-18.23.19-5.71,3.25-11.59,8.67-14.43,6.85-3.59,14.39-2.26,19.38,3.29,4.41,4.9,6.03,11.5,3.69,18.48-1.68,5.01-6.94,9.89-13.37,10.89ZM88.31,307.58c5.54-2.71,8.3-8.9,7.75-14.95-.49-5.47-3.98-10.61-9.8-12.53-4.8-1.58-10.06.42-13.57,3.84-6.44,6.28-4.25,19.65,3.15,23.28,3.96,1.94,8.46,2.32,12.47.37Z"/>
      <path class="cls-2" d="M391.55,293.76c.23,9.66-6.82,17.79-16.23,17.62s-16.69-7.9-16.37-17.85c.3-9.28,7.41-16.64,16.39-16.61,9.18.03,15.99,7.59,16.21,16.84ZM384.57,305.06c5.96-6.47,5.75-15.98,0-21.62-3.2-3.13-7.27-4.44-11.78-3.62-3.36.61-7.1,2.89-9.18,6.69-3.39,6.2-2.42,14.61,3.22,19.41,4.98,4.24,13.19,4.1,17.75-.85Z"/>
      <path class="cls-10" d="M264.25,301.14l-15.61.14c.68-2,2.15-2.97,3.27-4.45l12.3-16.36.04,20.67ZM261.74,298.09c.1-3.41.37-5.97-.52-8.89l-6.85,9.01c2.52.35,4.75.57,7.37-.12Z"/>
      <path class="cls-12" d="M308.67,141.23c-3.5-.37-6.1,1.57-9.04,2.49-20.17,6.28-37.3,19.33-48.13,37.45-.61,1.02-1.06,1.51-1.81,1.71-.64.17-1.94-.29-2.33-1.11-4.16-8.78-14.89-19.79-23.16-25.62-10.5-7.41-22.27-12.5-34.68-15.46-4.31,1.66-7.74,5.44-12.77,3.91,9.63-4.16,18.42-8.04,25.71-15.11,5.88-5.7,10.95-11.53,15.23-18.8-6.13-4.29-10.45-9.65-13.42-16.24-.21-.47.82-1.2,1.71-.72,7.75,16.12,23.42,23.69,41.48,24.48,18.57.81,36.91-7.07,44.95-24.33.26-.57.96-.51,1.22-.52.39,0,1.18.61.88,1.18-2.41,4.43-4.88,8.82-8.74,12.15-1.55,1.33-3.24,2.23-4.47,4.16,9.08,15.46,22.78,27.45,39.64,32.86.44.14.58,1.4.33,1.58s-.74.29-1.37.06l-11.24-4.1ZM268.47,158.38c10.96-9.13,23.64-14.8,37.76-19.01-11.25-7.19-20.16-16.23-26.63-27.58-10.36,6.73-21.78,8.97-33.7,8.16-9.56-.3-18.41-2.97-26.43-8.13-6.89,11.43-15.82,20.51-26.82,27.57,6.97,1.95,12.76,4.22,19.08,7.12,14.07,6.79,25.93,16.92,34.91,29.77,1.04,1.49,1.12,3.48,2.94,4.15,5.18-8.74,11.62-15.44,18.89-22.05Z"/>
      <path class="cls-2" d="M268.47,158.38c-7.27,6.61-13.71,13.31-18.89,22.05-1.82-.67-1.9-2.66-2.94-4.15-8.98-12.85-20.84-22.98-34.91-29.77-6.32-2.89-12.11-5.17-19.08-7.12,11.01-7.06,19.94-16.15,26.82-27.57,8.02,5.16,16.87,7.83,26.43,8.13,11.92.81,23.34-1.43,33.7-8.16,6.48,11.36,15.38,20.4,26.63,27.58-14.12,4.21-26.8,9.88-37.76,19.01ZM270.24,150.79c8.04-5.71,16.12-9.64,25.26-12.99-6.9-5.54-12.46-12.09-17.57-19.23-18,8.9-38.7,8.67-56.86.08-4.68,6.94-10.44,12.79-17.31,19.13,18.14,6.8,33.94,17.9,45.41,34.12,6.54-8.11,13.01-15.01,21.07-21.1Z"/>
    </g>
  </g>
</svg>