<svg xmlns="http://www.w3.org/2000/svg" id="Layer_1" data-name="Layer 1" viewBox="0 0 306.93 306.93" width="306.93" height="306.93"><metadata><rdf:RDF xmlns:rdf="http://www.w3.org/1999/02/22-rdf-syntax-ns#" xmlns:dc="http://purl.org/dc/elements/1.1/"><rdf:Description><dc:creator>RealFaviconGenerator</dc:creator><dc:source>https://realfavicongenerator.net</dc:source></rdf:Description></rdf:RDF></metadata><defs>
    <style>
      .cls-1 {
        fill: #e50f38;
        stroke-width: 2px;
      }

      .cls-1, .cls-2, .cls-3 {
        stroke: #e50f38;
        stroke-miterlimit: 10;
      }

      .cls-2 {
        fill: #fde1e8;
        stroke-width: 14px;
      }

      .cls-4, .cls-3 {
        fill: #e5113a;
      }

      .cls-3 {
        stroke-width: 16px;
      }
    </style>
  </defs><path class="cls-4" d="M111.04,100.51l1.59,7.99c2.43-1.17,4.32-1.86,6.37-2.31,4.8-1.05,9.93-.98,14.8.4,4.12,1.17,7.06,3.77,10.87,5.67,5.11,2.56,12.04,2.43,16.76-.96,8.87-6.37,19.88-7.91,30.14-2.8,3.1-19.06,12.77-38.93,33.84-38.51,9.87.95,17.98,9.18,22.37,17.73,5.65,11.01,8.22,23.38,7.61,35.67-.43,8.61-3.65,17.5-12.14,19.12-12.26,2.35-20.59-7.51-24.65-18.33l-1.33-5.13-9.52,6.52,1.45,3,8.12,16.04,13.41,27.28c-1.83,13.36-7.22,25.4-15.94,35.36l-8.5,8.46c-22.71,18.26-53.71,22.81-81.41,14.29-25.99-8-45.79-27.94-51.03-54.85-.26-1.34-.59-3.19,0-4.4l5.65-11.44c5.63-11.4,10.94-22.71,16.99-33.82l-9.54-6.5c-.82,2.97-1.48,5.56-2.58,8.03-2.79,6.25-6.87,11.93-13.55,14.62-5.74,2.31-12.37,1.46-16.6-3.15-2.78-3.03-4.4-7.13-4.85-11.29-1.48-13.79,1.33-27.79,8.09-39.85,5.67-10.12,14.34-18.58,26.28-17.18,7.11.84,13.13,4.32,17.7,9.82,4.96,5.99,8.12,13.07,9.61,20.54ZM101.56,123.64l-3.47,5.68-15.78,31.8-5.54,11.3c3.5,21.45,16.94,39.45,36.25,49.08,26.74,13.35,60.32,12.27,85.32-4.27,15.43-10.21,25.91-25.98,28.85-44.3.26-1.65-1.27-3.33-1.9-4.64l-13.29-26.88c-2.97-6.05-5.86-11.79-9.5-17.74,6.8-2.35,12.08-6.28,16.83-11.67,1.28,7.13,2.79,13.23,6.5,18.92,3.15,5.59,9.15,8.98,15.62,8.42,9.03-.79,10.78-11.48,10.59-20.35-.2-9.45-2.22-18.66-6.01-27.21-4.14-9.35-11.69-18.31-22.17-18.32-19.88-.02-27.83,22.73-29.47,40.68-9.16-6.53-20.58-7.43-29.28-1.02-7.57,5.57-17.66,5.64-25.29.28-9.35-6.57-21.24-6.01-30.28,1.17-.71-12.11-3.77-24.61-11.41-33.26-6.31-7.24-16.61-10.34-25.39-5.7-5.34,2.82-9.28,7.61-12.2,12.82-6.36,11.37-9.05,24.37-7.91,37.31.62,7,3.55,13.04,10.64,13.65,14.08.36,19.37-14.12,21.67-27.41,4.7,5.56,10,9.45,16.61,11.64Z"></path><path class="cls-2" d="M96.63,124.46c-2.07-5.99-10.36-10.25-14.3-3.41-2.35,3.45-4.64,9.11-8.41,12.25-6.29,5.91-16.49,5.43-19.94-3.54-2.89-7.61-1.83-16.23-.25-24.07,3.24-14.9,11.73-31.13,28.08-31.26,9.25.38,16.87,7.55,20.91,15.54,1.99,3.71,3.25,8.18,4.48,11.99,3.35,11.69,10.91,7.44,19.86,8,9.09.6,17.79,6.51,27.08,5.62,7.74-.57,15.23-5.13,22.94-5.65,6.96-.57,14.78,2.72,18.65-5.18,2.16-3.82,3.77-9.95,6.26-14.8,2.3-4.8,6.2-9.84,10.08-12.46,19.2-12.64,35.72,8.91,38.76,28.43,1.45,8.33,2.48,18.31-1.74,25.81-3.27,5.77-10.7,6.86-16.06,3.44-1.71-1-3.26-2.33-4.58-3.82-4.36-4.3-6-13.83-11.84-13.98-3.49.01-6.76,2.69-8.37,5.71-2.34,3.73-.39,9.42,1.84,13.6,2.41,4.74,5.02,9.93,7.45,14.89,4.24,8.83,8.73,16.06,8.24,25.2-.17,3.61-1.12,7.34-2.6,10.95-6.28,15.43-18.83,27.78-33.7,35.05-36.76,18.07-88.48,5.99-106.97-31.24-2.95-5.98-5.05-12.65-4.13-19.35,1.23-8.93,7.72-19.15,11.82-28.07,2.57-6,8.32-13.13,6.47-19.54l-.04-.11ZM88.23,109.38c.82,2.28,1.97,4.41,3.55,6.23,3.91,4.42,10.26,5.79,13.74,1.4,6.04-8.82-.94-25.9-6.94-33.74-4.98-6.69-13.15-10.65-21.32-8.25-15.97,5.12-21.91,23.52-23.72,39.08-.61,7.18-.52,16.09,4.98,21.3,5.46,4.82,12.85,1.8,17.15-3.68,4.48-5.5,6.73-13.48,7.93-20.83.88-5.64,1.4-11.8,1.85-14.09.11-.41.13-1,.35-1.01.53,3.18.46,7.96,2.37,13.43l.06.16ZM218.68,95.86c.61,2.12,1.06,9.38,1.94,14.71,1.06,6.55,2.86,13.39,6.06,18.6,3.69,6.23,10.95,11.09,17.62,7.48,7.26-4.41,7.44-14.64,6.78-22.35-1.94-17.55-9.47-38.92-27.55-39.91-16.1,0-25.15,17.37-27.11,31.58-.43,5.35.05,10.06,3.88,12.67,5.43,2.98,11.84-1.54,14.27-6.55,2.66-4.91,3.45-12.02,3.73-14.89.06-.34.1-1.84.36-1.38v.03ZM201.63,214.43c12.15-9.18,24.53-24.81,24.42-40.55-.44-7.4-4.63-13.97-7.86-20.62-1.99-3.93-4.02-7.91-6.03-11.82-6.55-12.53-12.4-26.19-26.71-30.26-10.94-3.35-21.14,4.73-31.73,5.51-6.32.48-12.46-2.16-18.37-4.2-13.07-5.13-25.17.06-33.14,11.04-7.82,10.96-13.06,23.33-19.29,35.43-2.27,4.57-4.33,9.39-4.73,14.44-.41,4.49.53,9.11,2.36,13.55,19.03,44.78,83.64,55.52,120.94,27.57l.14-.1Z"></path><path class="cls-1" d="M200.46,214.17c-26.55,19.55-64.69,20.16-92.56,2.95-15.64-9.66-26.62-25.93-29.85-44.27l9.06-18.58c4.31-8.83,8.54-17.4,13.25-26,3.11-5.67,7.11-10.78,12.5-14.34,8.6-5.68,18.86-4.86,26.89.87,8.62,6.14,19.28,4.3,27.47-1.4,8.58-5.97,20.3-3.72,27.61,2.99,3.58,3.29,6.24,6.8,8.43,11.09l11.85,23.18,10.91,22.2c-3.01,16.74-11.96,31.29-25.57,41.31ZM222.45,173.16l-9.89-20.03-8.51-16.98c-2.67-5.32-5.22-10.46-9.24-14.82-6.15-7.36-15.92-10.12-24.69-6.05-8.15,6.91-19.17,8.57-29.01,4.4l-3.26-1.93c-8.86-6.97-20.85-5.2-28.21,3.32-3.41,3.95-6.25,8.22-8.65,13.02l-10.68,21.38-8.72,17.84c5.1,24.06,20.6,40.53,43.65,48.34,19.06,6.46,39.74,5.9,58.23-1.71,20.35-8.38,35.08-24.91,38.99-46.78Z"></path><path class="cls-3" d="M160.08,192.19c-11.58,18.79-11-.71-29.58-12.72-4.74-3.19-9.26-5.24-14.89-6.86-2.65-.94-5.08-.44-7.76.67-2.9,1.24-6.41,1.66-7.62-1.59-1.05-3.01,2.08-5.05,4.58-5.93,7.72-3.08,14.89-8.3,19.38-15.25,1.74-3.1-1.17-5.4-3.08-8.09-1.18-1.59-2.46-3.73-2.68-5.44-.39-2.05.93-4.11,3.03-4.38,2.33-.41,4.17,1.8,5.3,3.69,10.22,17.3,40.83,17.08,50.97-.09,1.18-1.99,3.21-4.32,5.66-3.43,1.83.58,2.77,2.54,2.35,4.54-.28,1.54-1.13,3.01-1.99,4.34-2.02,3.44-6.35,5.88-2.98,9.76,4.58,5.91,10.5,10.86,17.46,13.82,2.71,1.11,6.8,2.6,6.07,6.21-1.57,5.49-8.31.97-11.74.71-11.37,1.02-25.4,11.05-32.36,19.88l-.11.14ZM193.28,168.79c2.39.09,5.82,2.06,7.78,1.92,1.15-.38-2.58-1.92-3.03-2.13-8.69-3.75-16-10.14-21.42-18.11-.64-.97-1.41-2.15-1.28-3.24.1-.86.67-1.59,1.23-2.27,1.58-1.74,4.03-4.49,5.39-6.6.6-.79,1.57-2.9.79-2.67-.79.2-2.08,2.17-2.74,3.14-10.76,16.43-37.92,17.48-51.77,4.81-1.55-1.45-2.96-3.09-4.19-4.93-.54-.91-3.09-4.35-2.5-1.75.52,1.83,3.33,5.24,5.53,7.42,2.42,2.18,2.47,3.75.55,6.31-5.88,8.63-13.95,14.8-23.46,19.05-1.49.81-1,1.17.71.73,2.91-.99,5.84-2.54,9.04-1.5,16.21,4.32,26.53,13.97,36.45,26.11,1.64,1.92,3.17,1.03,4.41-.78,9.34-12.39,22.63-23.35,38.37-25.5h.15Z"></path></svg>